<svg xmlns="http://www.w3.org/2000/svg" viewBox="0 0 64 64" width="64" height="64" role="img" aria-label="modelschemas">
  <rect width="64" height="64" rx="14" fill="#14171c"/>
  <!-- left brace -->
  <path d="M25 13 C20 13 18.5 16 18.5 20 L18.5 26 C18.5 29.5 16.5 31.5 13.5 32 C16.5 32.5 18.5 34.5 18.5 38 L18.5 44 C18.5 48 20 51 25 51"
        fill="none" stroke="#d5dae1" stroke-width="3.5" stroke-linecap="round"/>
  <!-- right brace -->
  <path d="M39 13 C44 13 45.5 16 45.5 20 L45.5 26 C45.5 29.5 47.5 31.5 50.5 32 C47.5 32.5 45.5 34.5 45.5 38 L45.5 44 C45.5 48 44 51 39 51"
        fill="none" stroke="#d5dae1" stroke-width="3.5" stroke-linecap="round"/>
  <!-- branching schema graph -->
  <path d="M26.5 32 L37.5 24 M26.5 32 L37.5 40" fill="none" stroke="#5e6875" stroke-width="2.5"/>
  <circle cx="26.5" cy="32" r="4" fill="#8ab8f5"/>
  <circle cx="37.5" cy="24" r="3.2" fill="#94c99e"/>
  <circle cx="37.5" cy="40" r="3.2" fill="#d8ad6e"/>
</svg>
